<svg width="32" height="32" viewBox="0 0 32 32" fill="none" xmlns="http://www.w3.org/2000/svg">
<g clip-path="url(#clip0_161_1033)">
<path d="M16 0C7.17764 0 0 7.17764 0 16C0 24.8217 7.17764 32 16 32C24.8217 32 32 24.8217 32 16C32 7.17764 24.823 0 16 0ZM19.9791 16.5633H17.376V25.8413H13.5187V16.5633H11.6852V13.2841H13.5187V11.1631C13.5187 9.64408 14.2406 7.27044 17.4114 7.27044L20.2697 7.2814V10.4645H18.1951C17.8574 10.4645 17.3773 10.6334 17.3773 11.3578V13.2848H20.3161L19.9791 16.5633Z" fill="black"/>
<path d="M16 0C7.17764 0 0 7.17764 0 16C0 24.8217 7.17764 32 16 32C24.8217 32 32 24.8217 32 16C32 7.17764 24.823 0 16 0ZM19.9791 16.5633H17.376V25.8413H13.5187V16.5633H11.6852V13.2841H13.5187V11.1631C13.5187 9.64408 14.2406 7.27044 17.4114 7.27044L20.2697 7.2814V10.4645H18.1951C17.8574 10.4645 17.3773 10.6334 17.3773 11.3578V13.2848H20.3161L19.9791 16.5633Z" fill="url(#paint0_radial_161_1033)"/>
</g>
<defs>
<radialGradient id="paint0_radial_161_1033" cx="0" cy="0" r="1" gradientUnits="userSpaceOnUse" gradientTransform="translate(16 -6.15384) rotate(90) scale(38.1538)">
<stop stop-color="#05F6F9"/>
<stop offset="1" stop-color="#F907FC"/>
</radialGradient>
<clipPath id="clip0_161_1033">
<rect width="32" height="32" fill="white"/>
</clipPath>
</defs>
</svg>
