<?xml version="1.0" standalone="no"?>
<!DOCTYPE svg PUBLIC "-//W3C//DTD SVG 20010904//EN"
    "http://www.w3.org/TR/2001/REC-SVG-20010904/DTD/svg10.dtd">
<svg version="1.0" xmlns="http://www.w3.org/2000/svg"
     width="960.000000pt" height="960.000000pt" viewBox="0 0 960.000000 960.000000"
     preserveAspectRatio="xMidYMid meet">

    <g transform="translate(0.000000,960.000000) scale(0.100000,-0.100000)"
       fill="#32CD32" stroke="none">
        <path d="M0 4800 l0 -4800 4800 0 4800 0 0 4800 0 4800 -4800 0 -4800 0 0
-4800z m4951 3570 c84 -151 171 -309 194 -350 73 -130 419 -751 631 -1130 111
-201 206 -373 209 -381 4 -12 -19 -29 -97 -69 -57 -29 -155 -81 -218 -115 -63
-34 -185 -98 -270 -143 -85 -44 -204 -108 -265 -140 -83 -45 -113 -57 -121
-49 -7 7 -58 94 -114 195 -56 100 -105 182 -108 182 -7 0 -34 -46 -199 -345
-58 -104 -109 -194 -113 -200 -4 -5 -43 -75 -87 -155 -44 -80 -146 -264 -227
-408 -81 -145 -145 -266 -142 -269 5 -5 81 32 236 115 166 88 212 113 305 162
55 29 123 65 150 80 28 15 109 58 180 95 72 38 198 104 280 148 83 44 229 121
325 172 249 131 1040 549 1135 600 112 59 251 132 380 200 264 138 491 258
500 265 6 4 18 10 28 13 16 6 17 -32 17 -713 l0 -720 -677 -336 c-373 -185
-894 -443 -1158 -574 -396 -196 -1981 -983 -2585 -1284 l-155 -77 -633 3 -632
3 78 140 c43 77 92 165 109 195 16 30 70 127 120 215 49 88 193 344 318 569
125 225 241 432 256 458 16 27 29 50 29 52 0 2 16 33 36 68 34 59 369 658 444
793 42 75 317 568 508 910 80 143 161 289 180 325 19 36 49 90 67 120 18 30
45 78 60 105 18 30 62 111 100 180 39 69 126 224 193 345 179 322 182 326 185
323 1 -2 71 -127 156 -278z m2085 -3738 c20 -37 239 -429 542 -972 272 -488
282 -507 282 -513 0 -4 -283 -7 -628 -7 l-628 0 -119 213 c-65 116 -184 329
-263 472 -190 340 -197 353 -192 359 10 9 965 485 975 485 6 1 19 -16 31 -37z
m-2561 -2123 l65 -20 0 -94 0 -95 -95 0 c-94 0 -95 0 -95 24 0 14 -4 36 -10 50
-8 21 -16 26 -43 26 -54 0 -57 -10 -57 -167 0 -130 2 -143 19 -153 50 -26 81
-4 90 63 l6 42 93 1 93 1 -3 -101 -3 -100 -55 -19 c-73 -25 -211 -33 -281 -17
-153 36 -214 118 -214 285 0 50 6 107 14 129 17 49 73 112 122 137 84 42 233
46 354 8z m1645 20 c36 -5 81 -18 100 -27 34 -17 35 -18 36 -79 l1 -63 -82 0
c-66 0 -84 3 -89 16 -4 11 -17 14 -43 12 -47 -4 -57 -31 -16 -45 141 -52 182
-71 212 -99 35 -32 36 -34 36 -111 0 -95 -15 -120 -95 -160 -53 -27 -61 -28
-190 -26 -86 1 -151 7 -180 16 l-45 14 -3 77 -3 76 82 0 c74 0 84 -2 105 -25
34 -37 90 -29 82 11 -2 13 -29 28 -92 51 -138 49 -176 86 -184 177 -8 99 52
165 169 185 76 12 124 12 199 0z m624 -17 l51 -17 3 -67 3 -68 -76 0 c-56 0
-81 4 -92 16 -20 20 -77 15 -81 -7 -2 -12 11 -22 45 -34 173 -61 216 -91 229
-161 21 -115 -39 -199 -164 -225 -65 -13 -222 -7 -295 11 -58 15 -69 33 -65
108 l3 57 87 3 c79 3 87 1 93 -17 13 -41 99 -40 93 1 -2 16 -20 27 -78 48
-158 57 -200 98 -200 195 0 134 99 191 309 179 47 -3 107 -13 135 -22z m850
18 c38 -6 88 -19 112 -30 l44 -19 0 -90 0 -91 -95 0 -95 0 0 31 c0 48 -16 69
-53 69 -54 0 -57 -10 -57 -167 l0 -143 26 -12 c43 -20 78 6 84 62 l5 45 90 0
90 0 3 -97 3 -96 -58 -23 c-78 -31 -264 -34 -333 -6 -71 29 -110 65 -138 126
-35 75 -38 221 -5 291 58 125 188 177 377 150z m535 -1 c46 -5 99 -16 118 -24
33 -14 33 -15 33 -79 l0 -66 -79 0 c-58 0 -82 4 -91 15 -14 17 -76 20 -86 4
-11 -18 16 -34 101 -63 102 -35 140 -61 165 -112 24 -48 25 -92 5 -141 -21
-51 -42 -72 -95 -97 -39 -18 -63 -20 -180 -20 -86 1 -153 7 -185 16 l-50 14 0
75 0 74 78 3 c74 3 81 1 102 -23 27 -28 52 -32 80 -11 29 21 6 41 -84 71 -98
32 -154 73 -175 125 -20 50 -20 81 -1 127 29 69 69 97 157 112 75 12 93 12 187
0z m-6327 -54 c9 -27 41 -128 70 -224 40 -134 56 -175 70 -179 16 -4 18 -13
16 -61 l-3 -56 -157 -3 -158 -3 0 61 c0 54 2 60 21 60 16 0 20 5 17 28 -3 26
-6 27 -60 30 l-58 3 0 -31 c0 -23 4 -30 20 -30 18 0 20 -7 20 -60 l0 -60 -140
0 -140 0 0 59 c0 48 3 60 18 63 14 4 33 55 81 219 35 118 68 220 74 227 7 9
46 12 151 10 l141 -3 17 -50z m523 -10 l0 -60 -38 -3 -37 -3 2 -162 3 -162 33
-3 c26 -3 32 0 33 17 1 12 2 27 3 34 1 8 24 12 81 12 l80 0 0 -90 0 -90 -250
0 -250 0 -3 56 c-3 50 0 57 18 62 19 5 20 12 20 165 0 151 -1 160 -20 165 -17
4 -20 14 -20 59 0 30 3 58 7 62 4 3 127 7 275 7 l268 0 0 -115z m735 -50 l0
-115 -90 0 -90 0 0 50 0 50 -50 0 -50 0 0 -55 0 -55 35 0 c35 0 35 0 35 -45 0
-45 0 -45 -35 -45 l-36 0 3 -62 3 -63 48 -3 47 -3 0 60 0 61 90 0 90 0 0 -120
0 -120 -272 2 -273 3 -3 58 c-3 52 -1 57 18 57 19 0 20 5 20 164 0 155 -1 164
-20 169 -17 4 -20 14 -20 59 0 30 3 58 7 61 3 4 127 7 275 7 l268 0 0 -115z
m338 55 c2 -39 -1 -57 -11 -65 -13 -9 -13 -14 3 -35 l19 -25 23 23 c18 17 20
25 10 31 -9 5 -12 26 -10 67 l3 59 135 0 135 0 3 -62 c3 -60 2 -63 -21 -63
-16 0 -46 -23 -97 -75 l-73 -76 34 -37 c98 -108 135 -142 152 -142 16 0 18 -7
15 -57 l-3 -58 -152 -3 -153 -3 0 60 c0 38 4 61 12 63 9 3 8 12 -5 31 -22 34
-30 34 -52 0 -12 -18-14 -28 -7 -31 7 -2 12 -27 12 -63 l0 -59 -140 0 -140 0
0 60 c0 51 3 60 18 60 9 0 53 36 97 80 l79 79 -19 23 c-56 67 -142 148 -157
148 -15 0 -18 9 -18 58 0 32 3 62 7 66 4 3 72 5 152 4 l146 -3 3 -55z m1517
-5 l0 -60 -38 -3 -37 -3 2 -162 3 -162 32 -3 c29 -3 32 -1 35 30 l3 33 80 0
80 0 0 -90 0 -90 -250 0 -250 0 -3 53 c-3 47 -1 54 17 59 20 5 21 12 21 168 0
154 -1 163 -20 168 -17 4 -20 14 -20 59 0 30 3 58 7 62 4 3 81 5 172 4 l166
-3 0 -60z m715 -159 c39 -124 75 -225 84 -231 11 -9 16 -28 16 -69 l0 -56 -155
0 c-117 0 -155 3 -156 13 -1 6 -3 31 -5 55 -3 38 -1 44 21 52 26 10 29 17 19
44 -9 23 -109 23 -118 0 -10 -27 -7 -34 20 -44 23 -9 25 -14 22 -62 l-3 -53
-137 -3 -138 -3 0 57 c0 43 5 60 19 72 12 11 36 72 61 157 23 77 53 175 67 218
l25 78 145 -3 146 -3 67 -219z m1535 169 c1 -64 -3 -75 -26 -75 -18 0 -19 -10
-19 -161 0 -152 1 -161 20 -166 11 -3 20 -10 21 -17 10 -115 22 -107 -154 -104
l-151 3 -1 53 c-1 48 1 55 22 63 23 8 23 10 23 168 0 158 0 160 -22 163 -21 3
-23 9 -24 58 -1 30 0 58 3 63 2 4 73 6 156 5 l152 -3 0 -50z m-3821 -913 c17
-9 41 -38 54 -62 19 -37 23 -57 20 -116 -3 -60 -8 -77 -32 -108 -37 -50 -85
-69 -154 -64 -56 5 -91 25 -126 71 -25 33 -34 147 -17 200 31 92 161 133 255
79z m3515 17 c55 -12 115 -66 105 -94 -9 -23 -22 -18 -63 25 -33 34 -44 40
-80 40 -24 0 -55 -7 -71 -16 -79 -47 -80 -221 -2 -272 14 -9 45 -16 75 -16 43
0 53 4 78 32 16 18 29 43 29 57 0 23 -3 25 -50 25 -38 0 -50 4 -50 15 0 13 12
15 68 13 l67 -3 0 -84 c0 -59 -4 -86 -12 -88 -8 -3 -13 4 -13 16 0 26 -1 26
-50 1 -80 -41 -165 -18 -217 59 -18 27 -23 48 -23 103 0 38 6 84 14 102 16 38
69 82 106 89 14 2 28 5 32 6 4 0 30 -4 57 -10z m-3909 -19 c15 -11 31 -31 34
-44 7 -29 -8 -74 -32 -92 -11 -9 -13 -13 -4 -14 7 0 24 -11 37 -25 34 -33 34
-93 1 -132 -23 -27 -28 -28 -137 -31 -99 -3 -114 -2 -126 14 -16 22 -18 295
-3 325 9 17 22 19 106 19 80 0 101 -3 124 -20z m778 1 c80 -41 117 -121 94
-206 -27 -103 -75 -134 -208 -136 -74 -2 -89 1 -101 16 -16 23 -19 296 -3 326
9 16 22 19 96 19 64 0 94 -5 122 -19z m221 -56 c30 -41 59 -80 66 -85 9 -7 28
13 71 75 35 50 66 84 77 85 31 0 18 -29 -53 -122 l-69 -92 -3 -75 c-2 -60 -6
-76 -18 -76 -12 0 -16 18 -20 80 -5 80 -5 80 -66 160 -74 98 -77 103 -69 115
13 22 33 7 84 -65z m722 46 c38 -38 39 -83 3 -116 -24 -22 -24 -24 -6 -29 59
-19 75 -107 28 -154 -26 -26 -30 -27 -144 -27 l-117 0 -3 164 c-2 112 1 168 9
177 8 10 36 14 106 14 91 0 96 -1 124 -29z m174 7 c2 -13 6 -79 7 -146 3 -116
4 -125 27 -143 33 -27 129 -27 162 0 23 18 24 27 29 163 5 135 6 143 25 143
19 0 20 -8 23 -130 2 -108 -1 -136 -15 -165 -26 -51 -73 -72 -155 -68 -79 4
-116 26 -135 79 -12 36 -18 271 -6 282 14 14 33 6 38 -15z m410 -163 c0 -153
-2 -180 -15 -180 -13 0 -15 28 -18 183 -2 171 -1 183 15 180 16 -3 18 -19 18
-183z m149 169 c3 -9 6 -83 6 -165 l0 -149 110 0 c91 0 110 -3 110 -15 0 -13
-20 -15 -123 -15 -82 0 -127 4 -135 12 -13 13 -18 329 -5 341 11 12 31 7 37
-9z m527 -7 c109 -57 118 -237 16 -311 -24 -18 -43 -21 -135 -21 l-107 0 -3
164 c-2 112 1 168 9 177 8 10 36 14 94 14 66 0 90 -4 126 -23z m217 -153 c2
-141 0 -173 -12 -183 -8 -7 -20 -10 -26 -6 -11 7 -15 347 -3 359 4 4 14 5 23
4 13 -3 15 -29 18 -174z m232 64 c47 -62 97 -130 112 -152 l28 -41 0 153 c0
145 1 152 20 152 19 0 20 -7 20 -179 0 -121 -4 -182 -11 -187 -15 -9 -50 29
-163 179 l-96 128 0 -150 c0 -149 -7 -178 -33 -152 -12 12 -19 275 -9 334 9
55 41 34 132 -85z"/>
        <path d="M1602 2299 c-19 -79 -17 -89 18 -89 34 0 36 7 19 78 -17 67 -24 69
-37 11z"/>
        <path d="M5384 2323 c-3 -16 -10 -44 -15 -63 -13 -50 -13 -50 27 -50 39 0 39
-1 13 103 -12 44 -17 46 -25 10z"/>
        <path d="M3191 1538 c-63 -34 -88 -130 -57 -213 14 -35 26 -48 61 -65 37 -18
49 -20 82 -10 51 14 70 30 88 73 29 69 14 159 -34 201 -26 24 -107 32 -140 14z"/>
        <path d="M2768 1544 c-5 -4 -8 -31 -8 -61 l0 -53 74 0 c54 0 79 4 90 16 20 20
21 68 1 84 -17 14 -146 26 -157 14z"/>
        <path d="M2760 1320 l0 -70 80 0 c73 0 83 3 105 25 14 13 25 34 25 45 0 12
-11 32 -25 45 -22 22 -32 25 -105 25 l-80 0 0 -70z"/>
        <path d="M3558 1544 c-5 -4 -8 -72 -8 -151 l0 -143 60 0 c116 0 170 47 170
148 0 63 -20 106 -59 126 -33 17 -152 32 -163 20z"/>
        <path d="M4477 1543 c-4 -3 -7 -30 -7 -60 l0 -53 73 0 c89 0 110 12 105 60 -2
25 -10 38 -28 47 -26 13 -132 18 -143 6z"/>
        <path d="M4472 1323 l3 -68 76 -3 c64 -2 79 0 102 18 33 26 36 71 7 100 -17
17 -33 20 -105 20 l-86 0 3 -67z"/>
        <path d="M5752 1542 c-9 -6 -12 -43 -10 -148 l3 -139 55 -3 c115 -7 174 44
175 149 0 59 -18 97 -58 123 -26 18 -147 31 -165 18z"/>
    </g>
</svg>
