<?xml version="1.0" encoding="UTF-8"?>
<svg id="Layer_1" data-name="Layer 1" xmlns="http://www.w3.org/2000/svg" viewBox="0 0 64 64">
  <defs>
    <style>
      .cls-1 {
        fill: #fff;
      }
    </style>
  </defs>
  <path d="m36.88,16.57c.38.12.79.21,1.15.37,2.47,1.15,3.11,4.38,1.21,6.35-2.15,2.22-4.36,4.38-6.55,6.57-.43.43-.95.43-1.38,0-2.18-2.18-4.38-4.34-6.53-6.54-1.09-1.11-1.41-2.49-.92-3.97.49-1.5,1.56-2.41,3.12-2.71.05,0,.09-.04.14-.06.37,0,.73,0,1.1,0,1.69.26,2.64,1.58,3.78,2.67.09-.09.17-.15.24-.22.43-.43.86-.86,1.29-1.29.48-.48,1.06-.82,1.71-1.01.18-.05.37-.1.55-.15.37,0,.73,0,1.1,0Z"/>
  <path d="m47.62,47.15c-.23.52-.64.68-1.2.68-2.18-.02-4.37,0-6.55,0-.11,0-.22,0-.32,0,.18-1.68.04-3.35.09-5.02.07-2.26-.9-3.87-2.97-4.84.12-.44.3-.84.76-1.04.12-.05.24-.11.35-.18.34-.2.6-.16.93.1,1.88,1.45,4.48,1.38,6.34-.12.18-.15.31-.17.53-.09,1.06.4,1.75,1.12,1.99,2.24,0,.02.03.03.04.04v8.24Z"/>
  <path class="cls-1" d="m35.78,16.57c-.18.05-.37.1-.55.15-.65.19-1.23.53-1.71,1.01-.43.43-.86.86-1.29,1.29-.07.07-.15.13-.24.22-1.13-1.09-2.08-2.41-3.78-2.67,2.52,0,5.04,0,7.57,0Z"/>
  <path d="m18.51,16.57c.69.35,1.37.69,2.06,1.04.53.27.72.79.49,1.27-.24.48-.79.64-1.33.37-.6-.3-1.19-.6-1.79-.9-.36-.18-.57-.45-.58-.85,0-.42.21-.7.6-.87.03-.01.05-.04.07-.06.16,0,.33,0,.49,0Z"/>
  <path d="m45.97,16.57c.12.07.25.14.35.23.47.4.42,1.17-.14,1.47-.67.37-1.36.71-2.06,1.04-.45.21-.98,0-1.19-.43-.22-.45-.05-.98.41-1.22.71-.37,1.42-.72,2.14-1.08.16,0,.33,0,.49,0Z"/>
  <path d="m27.31,37.87c-.54.4-1.12.74-1.59,1.19-.9.86-1.34,1.95-1.35,3.19-.01,1.57,0,3.13,0,4.7,0,.28.06.56.1.87h-.28c-2.26,0-4.51,0-6.77,0-.69,0-1.04-.35-1.04-1.05,0-2.42,0-4.84,0-7.26,0-1.43.82-2.52,2.2-2.92.08-.02.21.03.28.09.99.8,2.12,1.22,3.4,1.2,1.18-.01,2.23-.39,3.15-1.13.22-.18.4-.23.64-.08.05.03.11.05.17.07.56.23,1.01.56,1.09,1.14Z"/>
  <path d="m31.99,47.82c-1.61,0-3.21,0-4.82,0-.58,0-.97-.34-.98-.9-.01-1.58-.04-3.15.01-4.73.04-1.21.71-2.03,1.8-2.53.34-.15.57-.14.88.1,1.88,1.46,4.53,1.4,6.37-.11.19-.15.33-.15.54-.07,1.03.39,1.73,1.09,1.96,2.19.05.25.06.5.06.76,0,1.39,0,2.79,0,4.18,0,.78-.33,1.12-1.11,1.12-1.58,0-3.15,0-4.73,0Z"/>
  <path d="m22.17,36.05c-1.88-.01-3.36-1.52-3.34-3.43.01-1.83,1.54-3.31,3.41-3.3,1.85.01,3.33,1.52,3.33,3.38,0,1.86-1.52,3.35-3.4,3.34Z"/>
  <path d="m41.8,36.05c-1.85.01-3.37-1.51-3.38-3.37,0-1.82,1.5-3.34,3.3-3.35,1.92-.01,3.44,1.47,3.45,3.35,0,1.86-1.5,3.36-3.37,3.37Z"/>
  <path d="m35.36,35.64c0,1.85-1.49,3.34-3.35,3.35-1.87,0-3.36-1.49-3.37-3.37,0-1.86,1.5-3.37,3.37-3.37,1.86,0,3.35,1.5,3.35,3.38Z"/>
  <path d="m21.14,24.36c0,.37-.17.65-.5.81-.65.33-1.3.66-1.96.98-.49.23-1.02.05-1.24-.41-.23-.46-.05-.98.44-1.23.64-.33,1.28-.66,1.93-.96.65-.31,1.33.12,1.33.82Z"/>
  <path d="m42.86,24.34c0-.65.66-1.1,1.26-.83.7.32,1.39.67,2.06,1.03.44.24.58.78.36,1.21-.22.42-.72.63-1.17.42-.7-.32-1.38-.67-2.07-1.03-.31-.16-.46-.45-.45-.8Z"/>
</svg>