<?xml version="1.0" encoding="UTF-8"?>
<svg id="Layer_1" data-name="Layer 1" xmlns="http://www.w3.org/2000/svg" viewBox="0 0 64 64">
  <defs>
    <style>
      .cls-1 {
        fill: #fff;
      }
    </style>
  </defs>
  <path d="m40.41,29.81c-.58-2.83-2.17-4.91-4.75-6.19-1.61-.8-3.32-1.04-5.1-.71-2.06.38-3.78,1.37-5.12,2.98-1.66,2-2.27,4.3-1.91,6.86.22,1.54.9,2.89,1.87,4.1.7.87,1.55,1.57,2.54,2.09.09.05.17.1.17.22,0,.19,0,.38,0,.57-.01.23,0,.25.24.25,1.22,0,2.43,0,3.65,0h.83c.95,0,1.91,0,2.86,0,.2,0,.22-.03.21-.22,0-.15.01-.3,0-.45-.02-.21.06-.32.25-.42,3.33-1.8,4.97-5.61,4.27-9.07Zm-4.4,3.01c-.4.61-.94,1.11-1.49,1.58-.8.68-1.6,1.36-2.4,2.04-.04.03-.08.06-.13.1-.3-.26-.6-.51-.9-.77-.78-.68-1.57-1.35-2.34-2.06-.62-.57-1.12-1.25-1.32-2.09-.29-1.2.23-2.54,1.24-3.17,1.06-.66,2.41-.48,3.26.43.01.02.03.03.05.04.17-.14.32-.29.5-.41,1.28-.89,3.07-.43,3.8.98.6,1.16.43,2.27-.27,3.33Z"/>
  <path d="m35.67,41.53c-2.45,0-4.9,0-7.34,0-.22,0-.24.02-.24.24,0,.64,0,1.29,0,1.93,0,.21.02.23.23.23,1.23,0,2.46,0,3.7,0h3.65c.24,0,.25-.01.25-.24,0-.64,0-1.29,0-1.93,0-.21-.02-.22-.23-.22Z"/>
  <path d="m34.13,45.46c-1.42,0-2.84,0-4.26,0-.19,0-.22.03-.22.22,0,.64,0,1.28,0,1.91,0,.07.01.13.02.2.05,0,.07,0,.09,0,1.47,0,2.94,0,4.41,0,.14,0,.16-.06.16-.18,0-.65,0-1.31,0-1.96,0-.17-.06-.21-.21-.21Z"/>
  <path d="m40.98,21.26c-.14.15-.33.36-.54.57-.57.57-1.14,1.14-1.71,1.71-.04.04-.06.18-.03.21.33.33.67.66,1.02.99,0,0,.01,0,.03-.02.76-.76,1.52-1.52,2.29-2.28.09-.08.07-.15-.01-.22-.34-.3-.68-.61-1.05-.95Z"/>
  <path d="m23.49,23.97c.26.27.52.55.77.82.36-.35.67-.67.99-.97.12-.11.11-.18,0-.3-.73-.72-1.45-1.45-2.18-2.18-.09-.09-.15-.1-.24,0-.28.29-.56.57-.85.84-.1.1-.11.16,0,.26.51.5,1.01,1.01,1.51,1.52Z"/>
  <path d="m38.7,39.08c.77.79,1.56,1.6,2.33,2.39.35-.35.69-.69,1.04-1.04-.79-.78-1.58-1.56-2.39-2.35-.33.34-.68.69-.98,1.01Z"/>
  <path d="m21.92,40.47c.34.32.7.66,1.04.98.77-.77,1.56-1.56,2.34-2.34-.33-.33-.68-.68-1.01-1.01l-2.37,2.37Z"/>
  <path d="m21.71,30.63c-.94,0-1.89,0-2.83,0-.15,0-.19.05-.19.19,0,.39,0,.79,0,1.18,0,.15.05.19.19.19.47,0,.93,0,1.4,0s.95,0,1.43,0c.12,0,.17-.04.17-.16,0-.41,0-.82,0-1.23,0-.13-.04-.17-.17-.17Z"/>
  <path d="m45.31,31.73c0-.36,0-.72,0-1.08-.04,0-.07-.01-.1-.01-.98,0-1.96,0-2.95,0-.13,0-.14.07-.14.17,0,.39,0,.78,0,1.17,0,.2.03.23.23.23.83,0,1.65,0,2.48,0,.54,0,.47.07.47-.46Z"/>
  <path class="cls-1" d="m32.49,28.51c-.18.12-.33.27-.5.41-.02-.02-.04-.03-.05-.04-.85-.91-2.21-1.09-3.26-.43-1.01.63-1.53,1.97-1.24,3.17.21.85.7,1.52,1.32,2.09.76.7,1.55,1.37,2.34,2.06.3.26.6.51.9.77.05-.04.09-.07.13-.1.8-.68,1.6-1.36,2.4-2.04.55-.47,1.09-.96,1.49-1.58.7-1.06.87-2.17.27-3.33-.73-1.41-2.52-1.87-3.8-.98Zm2.44,3.08c-.23.45-.53.84-.91,1.18-.6.53-1.2,1.05-1.8,1.58-.07.06-.14.12-.24.2-.77-.7-1.52-1.4-2.28-2.09-.37-.34-.65-.73-.75-1.23-.1-.48.01-.91.33-1.27.39-.46,1.14-.45,1.55.02.15.18.26.39.38.6.05.1.11.15.23.15.38,0,.77,0,1.15,0,.11,0,.19-.04.24-.14.09-.17.18-.34.29-.5.48-.68,1.38-.63,1.79.1.26.46.27.93.03,1.4Z"/>
  <path d="m33.1,30.09c-.11.16-.2.33-.29.5-.05.1-.13.14-.24.14-.38,0-.77-.01-1.15,0-.12,0-.17-.05-.23-.15-.11-.21-.22-.42-.38-.6-.4-.47-1.16-.47-1.55-.02-.32.37-.42.8-.33,1.27.1.5.38.89.75,1.23.76.69,1.51,1.39,2.28,2.09.09-.08.17-.13.24-.2.6-.53,1.2-1.05,1.8-1.58.38-.33.68-.72.91-1.18.24-.47.23-.94-.03-1.4-.41-.73-1.31-.78-1.79-.1Z"/>
  <rect x="30.85" y="16.37" width="1.9" height="3.79"/>
</svg>