<?xml version="1.0" encoding="UTF-8"?>
<svg id="Layer_1" data-name="Layer 1" xmlns="http://www.w3.org/2000/svg" viewBox="0 0 64 64">
  <defs>
    <style>
      .cls-1 {
        fill: #fff;
      }
    </style>
  </defs>
  <path d="m50.43,46.63c-.24.34-.41.75-.72.99-.27.21-.68.29-1.03.31-.69.05-1.39.01-2.09.01-10.36,0-20.73,0-31.09,0-.54,0-1.02-.09-1.42-.48-.31-.31-.5-.68-.5-1.12,0-5.04,0-10.08,0-15.11,0-.04,0-.07.02-.15,1.07.23,2.14.46,3.26.7-.11.19-.2.35-.3.51-.45.72-.33,1.26.37,1.7.66.42,1.32.83,1.98,1.24.66.41,1.2.29,1.62-.37.07-.11.14-.22.23-.35.65.41,1.29.8,1.93,1.21.07.04.1.17.11.27.03.26,0,.53.06.78.11.45.13.84-.09,1.31-.34.73.08,1.5.84,1.8.09.03.18.06.26.1-.6,1.61.71,2.44,1.86,2.12-.05.56.08,1.05.54,1.39.46.34.97.37,1.52.2.02.22.02.44.07.64.24.9,1.28,1.31,2.19.85.59-.3,1.15-.65,1.71-.99.18-.11.31-.11.49,0,.52.32,1.05.63,1.58.92.91.5,1.95.13,2.23-.79.05-.17.05-.35.08-.56.52.16,1.03.17,1.5-.15.47-.32.62-.8.62-1.37.63.14,1.2.05,1.62-.44.43-.5.42-1.07.16-1.68.07-.03.14-.07.21-.09.94-.32,1.31-1.24.82-2.11-.13-.24-.12-.42-.06-.67.1-.4.13-.82.19-1.23.02-.1.02-.24.08-.28.64-.42,1.29-.82,1.95-1.24.12.19.22.35.34.5.32.45.85.6,1.33.32.79-.47,1.58-.96,2.34-1.47.49-.32.59-.88.3-1.4-.12-.22-.26-.42-.42-.69,1.13-.24,2.21-.47,3.3-.7v15.55Z"/>
  <path d="m50.43,28.71c-1.4.3-2.81.59-4.21.9-.3.07-.46.03-.63-.25-.8-1.31-1.62-2.6-2.44-3.9-.5-.8-1-.92-1.79-.42-.6.38-1.2.75-1.79,1.13-.82.52-.93.99-.41,1.82.04.06.07.12.14.23-.4.25-.82.48-1.19.76-.5.37-.93.51-1.59.21-1.01-.45-2.07-.21-3.07.19-.37.14-.73.31-1.06.52-.26.16-.45.16-.71,0-.94-.55-1.94-.93-3.06-.92-.57,0-1.11.14-1.62.4-.1.05-.26.07-.34.02-.64-.38-1.26-.78-1.91-1.19.11-.18.21-.34.3-.5.28-.52.17-1.06-.33-1.39-.75-.49-1.51-.97-2.28-1.43-.54-.32-1.09-.16-1.45.4-.87,1.38-1.74,2.76-2.6,4.14-.1.15-.18.26-.39.21-1.42-.32-2.85-.62-4.28-.93-.03,0-.06-.02-.11-.04,0-1.57-.03-3.14.01-4.71.02-.74.73-1.38,1.47-1.44.19-.01.38-.01.58-.01,10.9,0,21.8,0,32.7-.01,1.03,0,1.73.34,2.08,1.32v4.89Z"/>
  <path d="m32.53,43.69c.45-.59.61-1.19.24-1.81-.43-.72-1.12-.82-1.88-.63.03-1.17-.76-1.84-2.03-1.61.07-.9-.36-1.45-1.16-1.66.04-.36.14-.7.09-1.01-.16-1.01-1.24-1.5-2.2-1.01-.59.3-1.14.65-1.72.98-.1.06-.21.12-.41.23-.03-.46-.1-.86-.06-1.24.04-.31-.03-.46-.28-.61-.67-.4-1.32-.83-1.98-1.24-.02-.01-.03-.04-.07-.08,1.09-1.74,2.19-3.49,3.31-5.28.66.41,1.31.81,1.95,1.23.3.2.53.24.86.01.71-.48,1.53-.49,2.32-.28.65.17,1.27.46,2.01.73-.2.16-.3.23-.4.31-.59.43-1.2.84-1.78,1.28-.76.58-1.05,1.42-.8,2.21.38,1.18,1.72,1.64,2.81.93.66-.43,1.29-.91,1.94-1.36.13-.09.25-.18.3-.21,2.16,1.39,4.27,2.74,6.38,4.1.19.12.37.27.51.45.27.35.26.76.03,1.07-.22.29-.65.41-1.04.28-.16-.05-.3-.14-.44-.23-1.06-.67-2.13-1.35-3.19-2.02-.09-.06-.19-.15-.28-.15-.12,0-.29.04-.36.12-.05.06,0,.24.07.34.05.08.17.13.26.18,1.05.67,2.11,1.33,3.16,2,.22.14.44.29.63.47.35.33.4.83.16,1.18-.24.35-.72.47-1.16.28-.14-.06-.27-.15-.4-.24-1.11-.77-2.23-1.54-3.34-2.31-.04-.03-.08-.06-.12-.08-.17-.12-.36-.21-.5,0-.13.2-.01.35.17.47.98.67,1.96,1.34,2.92,2.03.23.17.44.42.54.68.23.63-.33,1.23-.99,1.08-.23-.05-.45-.17-.64-.3-1.01-.74-2-1.49-3-2.24-.1-.07-.18-.18-.29-.2-.12-.03-.31-.02-.37.06-.06.07-.02.25.02.37.03.08.14.13.21.18.8.61,1.6,1.22,2.4,1.83.1.07.19.15.27.23.34.35.4.87.15,1.21-.24.33-.75.46-1.17.24-.56-.29-1.1-.63-1.68-.97Z"/>
  <path d="m39.6,28.71c1.11,1.77,2.21,3.52,3.33,5.3-.64.41-1.27.82-1.92,1.2-.33.2-.5.38-.42.82.07.37-.06.77-.11,1.25-1.52-.97-2.94-1.88-4.34-2.77.58-.25,1.16-.49,1.73-.74.19-.08.39-.21.24-.47-.14-.25-.34-.14-.53-.04-.66.38-1.35.67-2.14.57-.55-.07-1-.33-1.32-.78-.21-.3-.4-.3-.68-.1-.75.55-1.52,1.09-2.28,1.63-.6.42-1.19.42-1.66.02-.54-.46-.61-1.18-.18-1.77.04-.05.07-.11.11-.14,1.51-1.11,2.9-2.42,4.76-2.96.97-.28,1.94-.28,2.82.35.09.07.33.03.45-.04.71-.42,1.4-.87,2.13-1.32Z"/>
  <path d="m24.64,27.15c-.09.18-.14.3-.2.41-1.46,2.32-2.92,4.65-4.38,6.97-.26.42-.44.46-.85.21-.67-.42-1.34-.84-2.01-1.26-.37-.23-.41-.43-.18-.81,1.47-2.34,2.94-4.69,4.41-7.03.22-.35.43-.4.78-.19.69.43,1.38.86,2.06,1.3.15.1.24.26.36.4Zm-2.44-.62c-.7,0-1.22.54-1.21,1.24,0,.66.55,1.21,1.22,1.22.67,0,1.24-.57,1.24-1.24,0-.69-.55-1.22-1.24-1.22Z"/>
  <path d="m47.16,33.06c-.1.13-.18.3-.31.38-.7.46-1.41.9-2.13,1.34-.32.19-.52.15-.73-.17-1.49-2.37-2.98-4.74-4.47-7.12-.19-.3-.14-.52.15-.71.72-.46,1.44-.91,2.16-1.36.32-.2.53-.12.76.26,1.36,2.16,2.71,4.32,4.07,6.48.11.18.23.36.34.55.05.09.08.19.15.35Zm-4.14-5.3c0-.69-.54-1.22-1.24-1.22-.68,0-1.21.53-1.22,1.2,0,.67.55,1.25,1.22,1.25.67,0,1.23-.56,1.23-1.24Z"/>
  <path d="m36.23,21.9c0-.58,0-1.15,0-1.71,0-1.43-.77-2.21-2.19-2.21-1.4,0-2.81,0-4.21,0-1.23,0-2.05.81-2.06,2.05,0,.62,0,1.24,0,1.88h-1.6c0-.66,0-1.31,0-1.96,0-.81.23-1.54.73-2.17.65-.84,1.51-1.35,2.58-1.37,1.69-.03,3.38-.05,5.07,0,1.79.05,3.26,1.62,3.28,3.41,0,.68,0,1.37,0,2.08h-1.6Z"/>
  <path d="m26.27,36.35c.45,0,.78.21.92.55.14.35.03.76-.29,1.04-.19.16-.41.28-.63.41-.52.31-1.05.63-1.58.92-.62.33-1.27.08-1.41-.52-.09-.39.05-.75.37-.95.75-.48,1.54-.92,2.32-1.36.11-.06.25-.06.32-.08Z"/>
  <path d="m29.44,40.08c.24.17.54.29.72.51.22.27.17.61,0,.91-.06.11-.15.23-.26.29-.77.46-1.53.93-2.32,1.35-.43.22-.95.02-1.16-.34-.21-.36-.14-.91.25-1.16.77-.5,1.58-.94,2.37-1.4.1-.06.23-.06.35-.08.02-.03.04-.05.06-.08Z"/>
  <path d="m27.37,38.52c.35.03.63.15.8.45.18.3.17.63-.04.91-.13.19-.32.35-.52.48-.57.35-1.15.68-1.73,1.01-.13.08-.28.15-.42.19-.39.11-.82-.03-1.02-.33-.21-.32-.18-.77.09-1.1.09-.11.2-.2.33-.28.65-.39,1.29-.77,1.95-1.13.17-.1.38-.13.57-.2Z"/>
  <path d="m32.37,42.6c0,.4-.21.68-.54.88-.67.4-1.33.8-2.01,1.17-.5.28-1.09.14-1.33-.28-.24-.41-.09-.97.39-1.27.69-.43,1.39-.85,2.11-1.22.68-.36,1.39.04,1.38.73Z"/>
  <path class="cls-1" d="m22.19,26.53c.7,0,1.24.53,1.24,1.22,0,.67-.57,1.24-1.24,1.24-.66,0-1.21-.55-1.22-1.22,0-.7.52-1.24,1.21-1.24Zm.66,1.23c0-.35-.27-.64-.62-.65-.37,0-.65.25-.66.61-.01.37.28.68.63.68.34,0,.65-.3.65-.64Z"/>
  <path class="cls-1" d="m43.02,27.75c0,.68-.56,1.24-1.23,1.24-.67,0-1.23-.58-1.22-1.25,0-.67.54-1.2,1.22-1.2.7,0,1.24.52,1.24,1.22Zm-.58-.02c0-.36-.29-.62-.65-.62-.35,0-.64.29-.64.64,0,.36.32.67.68.65.34-.02.62-.32.61-.67Z"/>
  <path d="m22.85,27.77c0,.34-.31.64-.65.64-.36,0-.65-.31-.63-.68.01-.36.3-.62.66-.61.35,0,.63.3.62.65Z"/>
  <path d="m42.44,27.73c0,.35-.27.66-.61.67-.35.02-.68-.29-.68-.65,0-.35.28-.64.64-.64.37,0,.64.26.65.62Z"/>
</svg>